<?xml version="1.0" standalone="no"?>
<!DOCTYPE svg PUBLIC "-//W3C//DTD SVG 20010904//EN"
 "http://www.w3.org/TR/2001/REC-SVG-20010904/DTD/svg10.dtd">
<svg version="1.0" xmlns="http://www.w3.org/2000/svg"
 width="1152.000000pt" height="648.000000pt" viewBox="0 0 1152.000000 648.000000"
 preserveAspectRatio="xMidYMid meet">
 <symbol id="glass" viewBox="0 0 1152.000000 648.000000">

<g transform="translate(0.000000,648.000000) scale(0.100000,-0.100000)"
fill="#000000" stroke="none">
<path d="M4113 4066 c-101 -19 -165 -42 -263 -92 -243 -124 -425 -355 -497
-629 -23 -87 -26 -120 -26 -250 0 -130 3 -163 26 -250 100 -374 375 -640 742
-716 331 -69 686 64 908 339 l27 34 515 -342 c325 -217 520 -340 530 -336 8 3
15 12 15 19 0 8 -232 169 -515 357 -283 189 -515 346 -515 349 0 4 4 11 9 17
14 13 67 123 90 185 34 90 51 179 58 294 18 317 -122 633 -365 827 -90 71
-250 151 -357 179 -104 26 -286 33 -382 15z m376 -65 c105 -28 244 -98 330
-167 149 -119 276 -319 323 -509 32 -129 32 -334 0 -459 -85 -339 -335 -594
-667 -682 -98 -26 -313 -26 -410 0 -84 22 -213 80 -289 131 -72 48 -185 160
-234 232 -389 575 -76 1351 595 1473 75 14 268 3 352 -19z"/>
</g>
 </symbol>
</svg>
